<svg width="64" height="64" viewBox="0 0 64 64" fill="none" xmlns="http://www.w3.org/2000/svg">
<rect width="64" height="64" rx="18" fill="#F4F077"/>
<path d="M15.008 53L28.448 10.312H35.552L49.056 53H41.952L30.496 11.976H33.504L22.048 53H15.008ZM22.048 42.44V37.32H42.016V42.44H22.048ZM12 53V48.968L17.76 47.56L17.12 53H12ZM21.408 53L20.576 47.432L26.528 48.968V53H21.408ZM37.472 53V48.968L43.232 47.56L42.592 53H37.472ZM46.88 53L46.048 47.432L52 48.968V53H46.88ZM23.776 10.312H28.896L29.536 15.88L23.776 14.344V10.312Z" fill="#101E10"/>
</svg>
